<svg xmlns="http://www.w3.org/2000/svg" xmlns:xlink="http://www.w3.org/1999/xlink" contentStyleType="text/css" data-diagram-type="CLASS" height="391px" preserveAspectRatio="none" style="width:354px;height:391px;background:#FFFFFF;" version="1.1" viewBox="0 0 354 391" width="354px" zoomAndPan="magnify"><defs/><g><!--cluster Controller--><g class="cluster" data-entity="Controller" data-source-line="1" data-uid="ent0002" id="cluster_Controller"><path d="M69.5,6 L149.5713,6 A3.75,3.75 0 0 1 152.0713,8.5 L159.0713,28.2969 L282.5,28.2969 A2.5,2.5 0 0 1 285,30.7969 L285,118.8 A2.5,2.5 0 0 1 282.5,121.3 L69.5,121.3 A2.5,2.5 0 0 1 67,118.8 L67,8.5 A2.5,2.5 0 0 1 69.5,6" fill="none" style="stroke:#000000;stroke-width:1.5;"/><line style="stroke:#000000;stroke-width:1.5;" x1="67" x2="159.0713" y1="28.2969" y2="28.2969"/><text fill="#000000" font-family="sans-serif" font-size="14" font-weight="bold" lengthAdjust="spacing" textLength="79.0713" x="71" y="20.9951">Controller</text></g><!--cluster Model--><g class="cluster" data-entity="Model" data-source-line="2" data-uid="ent0003" id="cluster_Model"><path d="M8.5,145.3 L57.3652,145.3 A3.75,3.75 0 0 1 59.8652,147.8 L66.8652,167.5969 L344.5,167.5969 A2.5,2.5 0 0 1 347,170.0969 L347,382.39 A2.5,2.5 0 0 1 344.5,384.89 L8.5,384.89 A2.5,2.5 0 0 1 6,382.39 L6,147.8 A2.5,2.5 0 0 1 8.5,145.3" fill="none" style="stroke:#000000;stroke-width:1.5;"/><line style="stroke:#000000;stroke-width:1.5;" x1="6" x2="66.8652" y1="167.5969" y2="167.5969"/><text fill="#000000" font-family="sans-serif" font-size="14" font-weight="bold" lengthAdjust="spacing" textLength="47.8652" x="10" y="160.2951">Model</text></g><!--class ????????????--><g class="entity" data-entity="............" data-source-line="4" data-uid="ent0004" id="entity_............"><rect fill="#F1F1F1" height="64.2969" rx="2.5" ry="2.5" style="stroke:#181818;stroke-width:0.5;" width="186.1729" x="82.91" y="41"/><ellipse cx="119.1395" cy="57" fill="#ADD1B2" rx="11" ry="11" style="stroke:#181818;stroke-width:1;"/><path d="M122.1083,62.6406 Q121.5302,62.9375 120.8895,63.0781 Q120.2489,63.2344 119.5458,63.2344 Q117.0458,63.2344 115.7177,61.5938 Q114.4052,59.9375 114.4052,56.8125 Q114.4052,53.6875 115.7177,52.0313 Q117.0458,50.375 119.5458,50.375 Q120.2489,50.375 120.8895,50.5313 Q121.5458,50.6875 122.1083,50.9844 L122.1083,53.7031 Q121.4833,53.125 120.8895,52.8594 Q120.2958,52.5781 119.6708,52.5781 Q118.327,52.5781 117.6395,53.6563 Q116.952,54.7188 116.952,56.8125 Q116.952,58.9063 117.6395,59.9844 Q118.327,61.0469 119.6708,61.0469 Q120.2958,61.0469 120.8895,60.7813 Q121.4833,60.5 122.1083,59.9219 L122.1083,62.6406 Z " fill="#000000"/><text fill="#000000" font-family="sans-serif" font-size="14" lengthAdjust="spacing" textLength="106.9961" x="137.8572" y="61.8467">&#1041;&#1086;&#1090;&#1058;&#1077;&#1083;&#1077;&#1075;&#1088;&#1072;&#1084;&#1084;</text><line style="stroke:#181818;stroke-width:0.5;" x1="83.91" x2="268.0829" y1="73" y2="73"/><line style="stroke:#181818;stroke-width:0.5;" x1="83.91" x2="268.0829" y1="81" y2="81"/><text fill="#000000" font-family="sans-serif" font-size="14" lengthAdjust="spacing" textLength="174.1729" x="88.91" y="97.9951">&#1055;&#1088;&#1086;&#1074;&#1077;&#1088;&#1080;&#1090;&#1100;&#1057;&#1086;&#1086;&#1073;&#1097;&#1077;&#1085;&#1080;&#1103;()</text></g><!--class ??????????????????--><g class="entity" data-entity=".................." data-source-line="9" data-uid="ent0005" id="entity_.................."><rect fill="#F1F1F1" height="64.2969" rx="2.5" ry="2.5" style="stroke:#181818;stroke-width:0.5;" width="200.5059" x="75.75" y="180.3"/><ellipse cx="90.75" cy="196.3" fill="#ADD1B2" rx="11" ry="11" style="stroke:#181818;stroke-width:1;"/><path d="M93.7188,201.9406 Q93.1406,202.2375 92.5,202.3781 Q91.8594,202.5344 91.1563,202.5344 Q88.6563,202.5344 87.3281,200.8937 Q86.0156,199.2375 86.0156,196.1125 Q86.0156,192.9875 87.3281,191.3312 Q88.6563,189.675 91.1563,189.675 Q91.8594,189.675 92.5,189.8312 Q93.1563,189.9875 93.7188,190.2844 L93.7188,193.0031 Q93.0938,192.425 92.5,192.1594 Q91.9063,191.8781 91.2813,191.8781 Q89.9375,191.8781 89.25,192.9562 Q88.5625,194.0187 88.5625,196.1125 Q88.5625,198.2062 89.25,199.2844 Q89.9375,200.3469 91.2813,200.3469 Q91.9063,200.3469 92.5,200.0812 Q93.0938,199.8 93.7188,199.2219 L93.7188,201.9406 Z " fill="#000000"/><text fill="#000000" font-family="sans-serif" font-size="14" lengthAdjust="spacing" textLength="168.5059" x="104.75" y="201.1467">&#1052;&#1077;&#1085;&#1077;&#1076;&#1078;&#1077;&#1088;&#1055;&#1091;&#1073;&#1083;&#1080;&#1082;&#1072;&#1094;&#1080;&#1081;</text><line style="stroke:#181818;stroke-width:0.5;" x1="76.75" x2="275.2559" y1="212.3" y2="212.3"/><line style="stroke:#181818;stroke-width:0.5;" x1="76.75" x2="275.2559" y1="220.3" y2="220.3"/><text fill="#000000" font-family="sans-serif" font-size="14" lengthAdjust="spacing" textLength="137.0605" x="81.75" y="237.2951">&#1054;&#1073;&#1088;&#1072;&#1073;&#1086;&#1090;&#1072;&#1090;&#1100;&#1060;&#1072;&#1081;&#1083;()</text></g><!--class ????????????--><g class="entity" data-entity="............" data-source-line="10" data-uid="ent0006" id="entity_............"><rect fill="#F1F1F1" height="64.2969" rx="2.5" ry="2.5" style="stroke:#181818;stroke-width:0.5;" width="145.7041" x="22.15" y="304.59"/><ellipse cx="39.5534" cy="320.59" fill="#ADD1B2" rx="11" ry="11" style="stroke:#181818;stroke-width:1;"/><path d="M42.5221,326.2306 Q41.944,326.5275 41.3034,326.6681 Q40.6627,326.8244 39.9596,326.8244 Q37.4596,326.8244 36.1315,325.1838 Q34.819,323.5275 34.819,320.4025 Q34.819,317.2775 36.1315,315.6213 Q37.4596,313.965 39.9596,313.965 Q40.6627,313.965 41.3034,314.1213 Q41.9596,314.2775 42.5221,314.5744 L42.5221,317.2931 Q41.8971,316.715 41.3034,316.4494 Q40.7096,316.1681 40.0846,316.1681 Q38.7409,316.1681 38.0534,317.2463 Q37.3659,318.3088 37.3659,320.4025 Q37.3659,322.4963 38.0534,323.5744 Q38.7409,324.6369 40.0846,324.6369 Q40.7096,324.6369 41.3034,324.3713 Q41.8971,324.09 42.5221,323.5119 L42.5221,326.2306 Z " fill="#000000"/><text fill="#000000" font-family="sans-serif" font-size="14" lengthAdjust="spacing" textLength="108.3633" x="54.0875" y="325.4367">&#1044;&#1077;&#1082;&#1086;&#1084;&#1087;&#1080;&#1083;&#1103;&#1090;&#1086;&#1088;</text><line style="stroke:#181818;stroke-width:0.5;" x1="23.15" x2="166.8541" y1="336.59" y2="336.59"/><line style="stroke:#181818;stroke-width:0.5;" x1="23.15" x2="166.8541" y1="344.59" y2="344.59"/><text fill="#000000" font-family="sans-serif" font-size="14" lengthAdjust="spacing" textLength="133.7041" x="28.15" y="361.5851">&#1056;&#1072;&#1079;&#1086;&#1073;&#1086;&#1088;&#1072;&#1090;&#1100;&#1060;&#1072;&#1081;&#1083;()</text></g><!--class ??????????--><g class="entity" data-entity=".........." data-source-line="11" data-uid="ent0007" id="entity_.........."><rect fill="#F1F1F1" height="64.2969" rx="2.5" ry="2.5" style="stroke:#181818;stroke-width:0.5;" width="128.3203" x="202.84" y="304.59"/><ellipse cx="221.5231" cy="320.59" fill="#ADD1B2" rx="11" ry="11" style="stroke:#181818;stroke-width:1;"/><path d="M224.4918,326.2306 Q223.9137,326.5275 223.2731,326.6681 Q222.6324,326.8244 221.9293,326.8244 Q219.4293,326.8244 218.1012,325.1838 Q216.7887,323.5275 216.7887,320.4025 Q216.7887,317.2775 218.1012,315.6213 Q219.4293,313.965 221.9293,313.965 Q222.6324,313.965 223.2731,314.1213 Q223.9293,314.2775 224.4918,314.5744 L224.4918,317.2931 Q223.8668,316.715 223.2731,316.4494 Q222.6793,316.1681 222.0543,316.1681 Q220.7106,316.1681 220.0231,317.2463 Q219.3356,318.3088 219.3356,320.4025 Q219.3356,322.4963 220.0231,323.5744 Q220.7106,324.6369 222.0543,324.6369 Q222.6793,324.6369 223.2731,324.3713 Q223.8668,324.09 224.4918,323.5119 L224.4918,326.2306 Z " fill="#000000"/><text fill="#000000" font-family="sans-serif" font-size="14" lengthAdjust="spacing" textLength="88.1357" x="236.3415" y="325.4367">&#1055;&#1091;&#1073;&#1083;&#1080;&#1082;&#1072;&#1090;&#1086;&#1088;</text><line style="stroke:#181818;stroke-width:0.5;" x1="203.84" x2="330.1603" y1="336.59" y2="336.59"/><line style="stroke:#181818;stroke-width:0.5;" x1="203.84" x2="330.1603" y1="344.59" y2="344.59"/><text fill="#000000" font-family="sans-serif" font-size="14" lengthAdjust="spacing" textLength="116.3203" x="208.84" y="361.5851">&#1054;&#1087;&#1091;&#1073;&#1083;&#1080;&#1082;&#1086;&#1074;&#1072;&#1090;&#1100;()</text></g><!--link ???????????? to ??????????????????--><g class="link" data-entity-1="............" data-entity-2=".................." data-source-line="13" data-uid="lnk8" id="link_............_.................."><path codeLine="13" d="M176,105.65 C176,127.97 176,139.8 176,162.09" fill="none" id="&#1041;&#1086;&#1090;&#1058;&#1077;&#1083;&#1077;&#1075;&#1088;&#1072;&#1084;&#1084;-to-&#1052;&#1077;&#1085;&#1077;&#1076;&#1078;&#1077;&#1088;&#1055;&#1091;&#1073;&#1083;&#1080;&#1082;&#1072;&#1094;&#1080;&#1081;" style="stroke:#181818;stroke-width:1;"/><polygon fill="none" points="176,180.09,182,162.09,170,162.09,176,180.09" style="stroke:#181818;stroke-width:1;"/></g><!--link ?????????????????? to ????????????--><g class="link" data-entity-1=".................." data-entity-2="............" data-source-line="14" data-uid="lnk9" id="link_.................._............"><path codeLine="14" d="M155.14,244.94 C143.05,263.2 137.809,271.1028 125.729,289.3428" fill="none" id="&#1052;&#1077;&#1085;&#1077;&#1076;&#1078;&#1077;&#1088;&#1055;&#1091;&#1073;&#1083;&#1080;&#1082;&#1072;&#1094;&#1080;&#1081;-to-&#1044;&#1077;&#1082;&#1086;&#1084;&#1087;&#1080;&#1083;&#1103;&#1090;&#1086;&#1088;" style="stroke:#181818;stroke-width:1;"/><polygon fill="none" points="115.79,304.35,130.7314,292.6558,120.7266,286.0298,115.79,304.35" style="stroke:#181818;stroke-width:1;"/></g><!--link ?????????????????? to ??????????--><g class="link" data-entity-1=".................." data-entity-2=".........." data-source-line="15" data-uid="lnk10" id="link_.................._.........."><path codeLine="15" d="M199.43,244.94 C213.02,263.2 219.3258,271.6683 232.8958,289.9083" fill="none" id="&#1052;&#1077;&#1085;&#1077;&#1076;&#1078;&#1077;&#1088;&#1055;&#1091;&#1073;&#1083;&#1080;&#1082;&#1072;&#1094;&#1080;&#1081;-to-&#1055;&#1091;&#1073;&#1083;&#1080;&#1082;&#1072;&#1090;&#1086;&#1088;" style="stroke:#181818;stroke-width:1;"/><polygon fill="none" points="243.64,304.35,237.7097,286.3269,228.0819,293.4897,243.64,304.35" style="stroke:#181818;stroke-width:1;"/></g><!--SRC=[bL7BQi905DtFLypIBlo1BjouxaU4DBWmD4NTgI0M144GmMNHLlm0qnfVIUCldFj7dXb5qs8WNGoNkUVSS-x3zPrcKrU3brOZy7sleLoRU0gUFL-zEcxTgNaPMBULrcSA9aYbZmKYn7pVqiCA2HAL1-X7ZJa_ARuGCUwaBoDyyfyYb26fFyoDIm-gIvEhkMqbw_jkcH7Ms5YTkRmXfDKE1wnamBY_aQSa7cYGu4WWbZ4xIwLt8_okFeFT_1dAvKwbM0j5I1Uvl2R_8N5lZ3nTSuWFphCrYpS9Ky5JB9dR8-O1xicPgXcE6S0SqbQQYYAjMeNGxZAq-_tZUm80]--></g></svg>